<?xml version="1.0" encoding="UTF-8"?>
<!DOCTYPE svg PUBLIC "-//W3C//DTD SVG 1.1//EN" "http://www.w3.org/Graphics/SVG/1.1/DTD/svg11.dtd">
<!-- Creator: CorelDRAW 2020 (64-Bit Evaluation Version) -->
<svg xmlns="http://www.w3.org/2000/svg" xml:space="preserve" width="301px" height="325px" version="1.1" style="shape-rendering:geometricPrecision; text-rendering:geometricPrecision; image-rendering:optimizeQuality; fill-rule:evenodd; clip-rule:evenodd"
viewBox="0 0 75.67 81.6"
 xmlns:xlink="http://www.w3.org/1999/xlink"
 xmlns:xodm="http://www.corel.com/coreldraw/odm/2003">
 <defs>
  <style type="text/css">
   <![CDATA[
    .fil0 {fill:#B08F1B}
    .fil21 {fill:url(#id0)}
    .fil22 {fill:url(#id1)}
    .fil8 {fill:url(#id2)}
    .fil13 {fill:url(#id3)}
    .fil10 {fill:url(#id4)}
    .fil19 {fill:url(#id5)}
    .fil2 {fill:url(#id6)}
    .fil11 {fill:url(#id7)}
    .fil9 {fill:url(#id8)}
    .fil1 {fill:url(#id9)}
    .fil20 {fill:url(#id10)}
    .fil12 {fill:url(#id11)}
    .fil18 {fill:url(#id12)}
    .fil14 {fill:url(#id13)}
    .fil17 {fill:url(#id14)}
    .fil16 {fill:url(#id15)}
    .fil5 {fill:url(#id16)}
    .fil7 {fill:url(#id17)}
    .fil6 {fill:url(#id18)}
    .fil3 {fill:url(#id19)}
    .fil15 {fill:url(#id20)}
    .fil4 {fill:url(#id21)}
   ]]>
  </style>
  <linearGradient id="id0" gradientUnits="userSpaceOnUse" x1="3.68" y1="46.44" x2="7.03" y2="46.44">
   <stop offset="0" style="stop-opacity:1; stop-color:#B08F1B"/>
   <stop offset="0.215686" style="stop-opacity:1; stop-color:#D2B23E"/>
   <stop offset="0.329412" style="stop-opacity:1; stop-color:#F4D662"/>
   <stop offset="0.521569" style="stop-opacity:1; stop-color:#F4DE8B"/>
   <stop offset="0.658824" style="stop-opacity:1; stop-color:#F4D662"/>
   <stop offset="1" style="stop-opacity:1; stop-color:#B08F1B"/>
  </linearGradient>
  <linearGradient id="id1" gradientUnits="userSpaceOnUse" xlink:href="#id0" x1="15.55" y1="76.12" x2="24.9" y2="76.12">
  </linearGradient>
  <linearGradient id="id2" gradientUnits="userSpaceOnUse" xlink:href="#id0" x1="61.6" y1="58.65" x2="65.16" y2="58.65">
  </linearGradient>
  <linearGradient id="id3" gradientUnits="userSpaceOnUse" xlink:href="#id0" x1="1.63" y1="37.38" x2="6.5" y2="37.38">
  </linearGradient>
  <linearGradient id="id4" gradientUnits="userSpaceOnUse" xlink:href="#id0" x1="65.51" y1="46.38" x2="68.85" y2="46.38">
  </linearGradient>
  <linearGradient id="id5" gradientUnits="userSpaceOnUse" xlink:href="#id0" x1="7.38" y1="58.71" x2="10.93" y2="58.71">
  </linearGradient>
  <linearGradient id="id6" gradientUnits="userSpaceOnUse" xlink:href="#id0" x1="66.04" y1="37.32" x2="70.91" y2="37.32">
  </linearGradient>
  <linearGradient id="id7" gradientUnits="userSpaceOnUse" xlink:href="#id0" x1="47.63" y1="76.06" x2="56.99" y2="76.06">
  </linearGradient>
  <linearGradient id="id8" gradientUnits="userSpaceOnUse" xlink:href="#id0" x1="69.32" y1="44.19" x2="72.4" y2="44.19">
  </linearGradient>
  <linearGradient id="id9" gradientUnits="userSpaceOnUse" xlink:href="#id0" x1="65.32" y1="52.56" x2="71.59" y2="52.56">
  </linearGradient>
  <linearGradient id="id10" gradientUnits="userSpaceOnUse" xlink:href="#id0" x1="0.41" y1="44.25" x2="3.49" y2="44.25">
  </linearGradient>
  <linearGradient id="id11" gradientUnits="userSpaceOnUse" xlink:href="#id0" x1="1.13" y1="52.62" x2="7.4" y2="52.62">
  </linearGradient>
  <linearGradient id="id12" gradientUnits="userSpaceOnUse" xlink:href="#id0" x1="1.43" y1="59.53" x2="7.79" y2="59.53">
  </linearGradient>
  <linearGradient id="id13" gradientUnits="userSpaceOnUse" xlink:href="#id0" x1="9.03" y1="71.96" x2="18.09" y2="71.96">
  </linearGradient>
  <linearGradient id="id14" gradientUnits="userSpaceOnUse" xlink:href="#id0" x1="12.45" y1="64.72" x2="16.19" y2="64.72">
  </linearGradient>
  <linearGradient id="id15" gradientUnits="userSpaceOnUse" xlink:href="#id0" x1="17.22" y1="70.1" x2="22.7" y2="70.1">
  </linearGradient>
  <linearGradient id="id16" gradientUnits="userSpaceOnUse" xlink:href="#id0" x1="50.07" y1="70.04" x2="55.55" y2="70.04">
  </linearGradient>
  <linearGradient id="id17" gradientUnits="userSpaceOnUse" xlink:href="#id0" x1="64.76" y1="59.47" x2="71.11" y2="59.47">
  </linearGradient>
  <linearGradient id="id18" gradientUnits="userSpaceOnUse" xlink:href="#id0" x1="56.74" y1="64.66" x2="60.48" y2="64.66">
  </linearGradient>
  <linearGradient id="id19" gradientUnits="userSpaceOnUse" xlink:href="#id0" x1="53.84" y1="71.9" x2="62.9" y2="71.9">
  </linearGradient>
  <linearGradient id="id20" gradientUnits="userSpaceOnUse" xlink:href="#id0" x1="4.25" y1="66.03" x2="11.95" y2="66.03">
  </linearGradient>
  <linearGradient id="id21" gradientUnits="userSpaceOnUse" xlink:href="#id0" x1="59.69" y1="65.97" x2="67.4" y2="65.97">
  </linearGradient>
 </defs>
 <g id="Layer_x0020_1">
  <metadata id="CorelCorpID_0Corel-Layer"/>
  <path class="fil0" d="M49.61 70.8c-0.11,0.15 -0.29,0.87 -0.36,1.07 -0.77,2.19 -2.07,4.35 -4.4,4.79l0.18 0.08c0.05,0.01 0.09,0.02 0.16,0.03 0.79,0.13 1.31,0.31 2.06,0.63 0.9,0.39 1.04,0.53 1.77,0.97 0.15,0.09 0.12,0.09 0.25,0.11 0.18,0.26 0.51,0.32 0.68,0.59 -0.17,0.18 -0.37,0.25 -0.52,0.46 -0.16,0.02 -0.05,-0.01 -0.19,0.08 -0.06,0.04 -0.13,0.09 -0.2,0.13 -0.13,0.08 -0.27,0.13 -0.34,0.23l-1.03 0.44c-0.06,0.02 -0.12,0.03 -0.18,0.06l-0.17 0.09c-0.22,-0.02 -0.48,0.08 -0.71,0.11 -0.31,0.04 -0.53,0.05 -0.85,0.05 -0.29,0 -1.51,-0.15 -1.56,-0.13 -0.12,-0.12 -0.15,-0.1 -0.34,-0.14 -0.14,-0.03 -0.25,-0.06 -0.37,-0.1 -0.25,-0.08 -0.48,-0.17 -0.74,-0.24l-1.92 -0.83c-0.03,-0.03 0.07,-0.11 -0.08,-0.02 -0.03,0.54 0.1,1.29 -0.12,1.75 -0.35,0.28 -0.96,0.19 -1.09,0.06 -0.22,-0.22 -0.15,-0.78 -0.16,-1.14 -0.01,-0.89 0,-1.78 0.01,-2.67l0 -1.18c0.04,-0.27 0.12,-0.41 0.32,-0.49 1.24,-0.04 1.03,0.04 1.04,2.16 0,0.17 0,0.34 0,0.52 -0.01,0.54 -0.05,0.42 0.08,0.48 0.29,-0.34 0.38,-0.22 0.9,-0.2 0.37,0.02 0.68,0.04 1.01,0.07 0.23,0.02 1.85,0.22 2.04,0.07l-3.55 -0.67c-0.47,-0.08 -0.35,-0.07 -0.37,-0.15 0.34,-0.31 0.85,-0.63 1.31,-0.82l0.38 -0.15c0.12,-0.06 0.05,-0.03 0.11,-0.06 0.21,0.02 0.52,-0.1 0.78,-0.13 1.06,-0.14 0.62,0.29 1.47,-0.9l1.85 -2.55 -0.41 0.38c-0.58,0.59 -1.3,1.49 -1.84,2.05 -0.08,0.08 -0.27,0.36 -0.39,0.41 -0.16,0.08 -0.46,0.03 -0.63,0.09 -0.09,-0.05 -0.17,0.03 -0.01,-0.34l0.41 -0.99 0.01 -0.09 0.32 -0.6c0.12,-0.22 0.23,-0.41 0.31,-0.64 0.06,-0.05 0.48,-0.77 0.59,-0.92 0.24,-0.33 0.44,-0.59 0.7,-0.87 0.45,-0.51 1.06,-0.89 1.85,-1.28 0.39,-0.14 0.8,-0.25 1.14,-0.36l0.95 -0.14c-0.04,0.25 -0.2,0.61 -0.15,0.84z"/>
  <path class="fil1" d="M72.17 50.74l-0.42 1.32c-0.72,1.59 -1.5,2.48 -2.62,3.61 -0.17,0.17 -0.94,0.96 -1.1,1.02 -0.12,-0.13 -0.11,-0.53 -0.1,-0.69 0.02,-0.25 0.15,-0.4 0.26,-0.6 0.21,-0.39 0.37,-0.71 0.57,-1.09 0.2,-0.37 0.39,-0.69 0.59,-1.07 0.19,-0.34 0.42,-0.75 0.56,-1.07 -0.07,0.13 -0.26,0.34 -0.37,0.5 -0.5,0.71 -1.74,2.64 -2.04,3.03 -0.16,0.2 -0.13,0.06 -0.27,0.21 -0.05,0.06 -0.3,0.51 -0.33,0.59l-0.15 0.12c-0.11,-0.21 -0.05,-0.66 -0.21,-0.85 0.01,-0.14 -0.34,-2.16 -0.4,-2.33 -0.2,0.21 0.1,2.35 0.08,2.98 -0.01,0.17 -0.06,0.25 -0.13,0.38 -0.07,0.14 -0.13,0.26 -0.24,0.35 -0.27,-0.22 -1.02,-2.37 -1.07,-2.59l-0.24 -1.09c-0.07,-0.22 -0.01,-0.07 -0.07,-0.14l0.03 -0.13c-0.01,-0.41 -0.04,-0.77 0,-1.18 0.03,-0.36 0.12,-0.66 0.17,-1 0.07,-0.12 0.71,-2.09 1.18,-2.37l0.32 0.4c0.1,0.15 0.19,0.28 0.28,0.43 0.5,0.77 0.89,1.61 1.12,2.52l0.11 0.47c0.07,0.19 0.01,0.06 0.07,0.12 0.21,-0.36 0.5,-1.05 0.82,-1.4l0.22 -0.36c0.11,-0.02 0,0.03 0.11,-0.08l0.25 -0.32c0.09,-0.11 0.1,-0.1 0.21,-0.21l0.59 -0.6c0.38,-0.37 1.91,-1.68 2.22,-1.65 0.05,0.49 0.09,0.89 0.09,1.39 0,0.4 -0.12,1.09 -0.09,1.38z"/>
  <path class="fil2" d="M70.28 33.71c0.02,0.25 0.29,0.81 0.38,1.11 0.16,0.67 0.23,1.16 0.24,1.89 0.02,0.68 -0.1,1.31 -0.16,1.94l-0.32 1.8c-0.09,0.12 -0.04,0.06 -0.09,0.22 -0.05,0.13 0,0.05 -0.07,0.17 -0.26,-0.16 -0.44,-0.52 -0.48,-0.86 -0.07,-0.73 -0.21,-3.22 -0.34,-3.52l-0.05 4.15 -0.21 -0.11c0.03,0.27 0.14,0.55 0.17,0.86 0.04,0.38 0.02,0.66 0.01,1.04 -0.03,0.27 -0.14,0.9 -0.29,1.07 -0.15,-0.11 -0.63,-1.16 -0.74,-1.42l-0.7 -1.43c0.05,0.31 0.75,2.18 0.91,2.6 0.12,0.31 0.01,0.63 -0.13,0.92 -0.19,-0.02 -0.12,-0.06 -0.43,-0.41l-1.13 -1.47c-0.06,-0.2 -0.32,-0.73 -0.45,-0.85l-0.19 -0.68c-0.22,-1.03 -0.25,-1.98 0.03,-3 0.05,-0.22 0.12,-0.39 0.11,-0.61 0.13,-0.07 0.05,-0.02 0.16,-0.06 0.05,0.06 0.31,0.25 0.43,0.36 0.38,0.34 0.48,0.41 0.88,0.83 0.11,0.13 0.25,0.34 0.37,0.39l-0.15 -0.57c-0.06,-0.62 -0.12,-1.09 -0.1,-1.74 0.02,-0.6 0.12,-1.08 0.19,-1.66 0.06,-0.21 0.23,-0.85 0.22,-1.04 0.11,-0.12 0.18,-0.45 0.24,-0.63 0.07,-0.22 0.16,-0.43 0.22,-0.64l0.14 -0.39c0.16,-0.06 0.64,0.69 0.72,0.79 0.15,0.2 0.48,0.85 0.61,0.95z"/>
  <path class="fil3" d="M62.22 69.75c0.35,0.01 0.7,0.14 1.03,0.11l0.25 0.09c-0.13,0.4 -0.47,0.73 -0.64,1.05 -0.13,0.18 -0.34,0.37 -0.39,0.55 -0.17,0.1 -0.51,0.47 -0.6,0.63 -0.19,0.04 -0.16,0.12 -0.33,0.26 -0.1,0.08 -0.25,0.18 -0.35,0.26 -0.38,0.25 -0.64,0.43 -1.11,0.65 -0.44,0.2 -0.95,0.34 -1.28,0.48 -0.38,0.08 -1.05,0.3 -1.41,0.28l-1.45 0.17c-0.19,0 -0.38,-0.03 -0.54,0.06 -0.3,-0.1 -1.11,0 -1.49,0 0.03,-0.21 0.2,-0.44 0.29,-0.62 0.16,-0.31 0.15,-0.25 0.51,-0.38 0.44,-0.17 0.9,-0.33 1.32,-0.49 0.85,-0.31 1.89,-0.62 2.61,-0.97 -0.73,0.1 -3.5,0.98 -4.8,1.16 0.08,-0.34 0.4,-0.66 0.55,-0.94 0.32,-0.27 0.51,-0.56 0.87,-0.83l0.87 -0.59c0.01,-0.01 0.02,-0.02 0.03,-0.02l0.06 -0.05c0.01,-0.01 0.02,-0.01 0.03,-0.02 0.13,-0.02 0.55,-0.23 0.72,-0.3 0.26,-0.1 0.52,-0.2 0.79,-0.25l0.25 -0.1c0.01,-0.02 0.02,-0.02 0.03,-0.03l1.42 -0.2 1.62 -0.08c0.17,0.1 0.86,0.08 1.14,0.12z"/>
  <path class="fil4" d="M68.35 63.43c-0.27,0.48 -0.47,1.03 -0.77,1.45 -0.17,0.23 -0.28,0.41 -0.46,0.63 -0.18,0.22 -0.39,0.37 -0.48,0.59 -0.1,0.05 -0.09,0.04 -0.18,0.12 -0.11,0.09 -0.07,0.06 -0.14,0.17 -0.13,0.04 -0.17,0.11 -0.29,0.21 -0.11,0.08 -0.18,0.14 -0.3,0.22 -0.15,0.12 -0.46,0.24 -0.61,0.4 -0.15,0.06 -0.01,-0.02 -0.15,0.07 -0.16,0.1 -0.05,0.03 -0.12,0.1 -0.09,0.01 -1.04,0.41 -1.23,0.49l-1.36 0.41 -2.22 0.39 -0.19 -0.01 0.04 -0.16c0.14,-0.1 0.15,-0.42 0.26,-0.59 0.08,-0.12 0.37,-0.26 0.51,-0.34 0.35,-0.19 0.75,-0.41 1.11,-0.6 0.41,-0.21 0.75,-0.41 1.14,-0.61 0.31,-0.16 0.83,-0.5 1.07,-0.59l-3.27 1.32c-0.33,0.15 -0.76,0.35 -1.07,0.45l-0.01 -0.18 0.15 -0.25c0.25,-0.54 0.6,-1.07 1,-1.51 0.5,-0.55 1.45,-1.03 1.63,-1.22 0.17,-0.03 0.45,-0.2 0.61,-0.27 0.23,-0.1 0.42,-0.17 0.66,-0.25 0.22,-0.07 0.45,-0.14 0.69,-0.21 0.2,-0.06 0.46,-0.1 0.65,-0.16l1.49 -0.25c0.13,0.05 0.27,0.03 0.44,0.02l1.4 -0.01 0 0.17z"/>
  <path class="fil5" d="M55.55 68.48c-0.24,1.25 -1.37,3.22 -2.44,4.2 -0.15,0.14 -0.45,0.36 -0.65,0.49 -0.2,0.12 -0.54,0.27 -0.72,0.38l-0.46 0.15c-0.01,0 -0.02,0.01 -0.03,0.01 -0.02,0.01 -0.03,0.01 -0.04,0.02l-0.07 0.04 -0.77 0.11c0.09,-0.31 2.11,-3.16 2.4,-3.8 -0.17,0.13 -0.74,0.88 -0.95,1.12 -0.09,0.11 -0.1,0.14 -0.18,0.25 -0.16,0.18 -0.26,0.27 -0.39,0.46l-0.95 1.18c-0.18,0.25 -0.52,0.27 -1,0.32l0.44 -1.28 0.15 -0.31c0.29,-0.73 0.73,-1.54 0.87,-1.92 0.1,-0.17 0.18,-0.34 0.29,-0.51 0.1,-0.16 0.24,-0.32 0.31,-0.48 0.05,-0.05 0.01,-0.01 0.07,-0.08 0.01,-0.01 0.06,-0.07 0.07,-0.08 0.08,-0.12 0.04,-0.03 0.09,-0.18 0.09,-0.05 0.66,-0.72 1.01,-0.99 0.2,-0.15 0.37,-0.27 0.58,-0.42 0.13,-0.08 0.58,-0.26 0.64,-0.35 0.7,-0.22 1.37,-0.55 2.26,-0.6 -0.1,0.7 -0.32,1.64 -0.53,2.27z"/>
  <path class="fil6" d="M60.42 61.6c-0.04,0.38 0.03,0.76 0.05,1.12 0.01,0.4 -0.01,0.75 -0.02,1.14l0.03 0.03c-0.13,0.17 -0.1,0.71 -0.13,0.97 -0.19,1.37 -0.51,1.63 -0.76,2.44 -0.09,0.08 -0.31,0.46 -0.41,0.6 -0.16,0.22 -0.3,0.4 -0.48,0.57 -0.28,0.26 -0.72,0.69 -1.14,0.87 -0.11,-0.15 0.31,-1.69 0.39,-2.02l0.32 -1.52c0.04,-0.21 0.12,-0.39 0,-0.53l-1.12 3.3c-0.11,0.33 -0.46,0.61 -0.8,0.68 -0.01,-1.03 -0.02,-2.14 0.07,-3.16 0.14,-1.54 0.35,-1.59 0.56,-2.61 0.1,-0.16 0.16,-0.37 0.26,-0.56 0.25,-0.48 0.64,-1.09 1.01,-1.45 0.3,-0.29 0.5,-0.51 0.85,-0.8 0.26,-0.23 0.9,-0.62 0.92,-0.69 0.17,0.07 0.08,-0.07 0.16,0.18l0.22 1.39c0,0.01 0.01,0.04 0.01,0.03 0,-0.01 0.01,0.02 0.01,0.02z"/>
  <path class="fil7" d="M71.16 56l-0.17 1.19c-0.11,0.14 -0.3,0.85 -0.37,1.07 -0.3,0.69 -0.78,1.59 -1.31,2.1 -0.3,0.28 -0.53,0.55 -0.87,0.83l-0.85 0.66c-0.01,0 -0.02,0.01 -0.03,0.02l-0.03 0.04 -0.43 0.27c-0.1,0.08 -0.02,0.01 -0.08,0.07 -0.21,0.09 -0.57,0.32 -0.76,0.45 -0.25,0.15 -0.79,0.49 -1.03,0.55l0.11 -0.9c0.15,-0.02 0.24,-0.23 0.35,-0.36l2.37 -2.66c-0.39,0.28 -0.94,0.85 -1.26,1.12l-1.26 1.12c-0.16,0.16 -0.28,0.24 -0.42,0.37 -0.18,0.17 -0.17,0.3 -0.44,0.32 0.24,-1.49 0.57,-2.61 1.68,-3.67 1.26,-1.23 1.52,-1.4 3.13,-2.23 0.15,-0.09 0.92,-0.38 1.01,-0.46l0.68 -0.21 -0.02 0.31z"/>
  <path class="fil8" d="M63.76 62.24c-0.17,0.14 -0.3,0.3 -0.52,0.48 -0.15,0.12 -0.41,0.32 -0.65,0.38 0.14,-0.69 0.29,-1.33 0.43,-2.02 0.07,-0.33 0.14,-0.65 0.21,-0.97 0.06,-0.23 0.15,-0.81 0.22,-0.96 -0.1,0.08 -0.63,1.77 -0.73,2.1 -0.26,0.78 -0.39,1.65 -1.08,1.79 -0.12,-0.52 0.06,-2.34 -0.01,-2.62l0.07 -0.25c0.1,-0.82 0.09,-0.7 0.29,-1.58 0.34,-0.8 0.45,-1.32 1.11,-2.07 0.29,-0.32 1.34,-1.35 1.76,-1.42 0.32,1.04 0.37,2.9 0.21,4.03 -0.14,0.98 -0.49,2.04 -1.08,2.83 -0.08,0.1 -0.16,0.18 -0.23,0.28z"/>
  <path class="fil9" d="M72.53 42.06l0 1.31c-0.12,0.03 -0.08,0.19 -0.1,0.35 -0.28,2.09 -2.09,4.37 -2.24,4.8l0.02 -0.02c-0.26,-0.06 -0.01,0.03 -0.21,-0.16 -0.01,-0.5 -0.21,-0.1 0.03,-1.01l0.67 -2.6c0.03,-0.16 0.04,-0.14 -0.01,-0.25l-1.21 3.3c-0.08,0.2 0.01,0.11 -0.12,0.19 -0.17,-0.19 -0.38,-1.04 -0.42,-1.36 -0.06,-0.56 -0.01,-1.22 0.08,-1.75 0.23,-1.28 0.99,-2.4 1.02,-2.67l0.91 -1.24c0.21,-0.28 0.74,-0.92 0.97,-1.1 0.32,0.39 0.52,2.09 0.61,2.21z"/>
  <path class="fil10" d="M66.2 43.06c0.1,0.15 0.33,0.29 0.47,0.41l0.89 0.92c0.15,0.18 0.22,0.29 0.37,0.47 0.06,0.16 0.17,0.27 0.25,0.42 0.09,0.16 0.12,0.32 0.26,0.42 0.02,0.31 0.27,0.78 0.34,1.16 0.09,0.51 0.02,0.98 0.07,1.41 -0.11,0.17 -0.11,0.8 -0.3,1.05 -0.1,-0.07 -1.43,-2.88 -1.45,-2.93 0.04,0.28 0.48,1.48 0.6,1.83 0.28,0.88 0.51,1.04 0.24,1.67 -0.09,0.2 0,0.14 -0.19,0.09 -0.03,-0.13 -0.49,-0.6 -0.62,-0.75l-0.99 -1.43c-0.04,-0.15 -0.07,-0.2 -0.13,-0.34 -0.03,-0.05 -0.05,-0.12 -0.08,-0.16 -0.07,-0.12 -0.03,-0.06 -0.09,-0.12 0,-0.16 -0.25,-0.9 -0.29,-1.23 -0.05,-0.53 -0.06,-0.82 -0.02,-1.36l0.19 -1.07 0.18 -0.59c0.18,0.05 0.13,0.08 0.3,0.13z"/>
  <path class="fil11" d="M49.96 74.58c-0.14,0.08 -0.54,0.25 -0.69,0.26 -0.12,0.15 -0.36,0.27 -0.53,0.38 -0.29,0.18 -0.83,0.65 -0.99,0.92l4.53 0.18c-0.26,0.09 -2.16,0.2 -2.58,0.24 -0.43,0.04 -0.86,0.09 -1.29,0.12 -0.32,0.03 -0.31,0.07 -0.48,0.24 -0.09,0.1 -0.25,0.27 -0.3,0.4 0.26,0.13 0.74,0.21 0.99,0.33 0.15,0.04 1.1,0.25 1.23,0.35l1.39 0.19c0.65,0.08 1.34,0.04 1.97,-0.07 0.28,-0.06 0.55,-0.13 0.82,-0.22 0.28,-0.1 0.49,-0.23 0.75,-0.3 0.03,-0.06 0.2,-0.13 0.28,-0.19 0.12,-0.07 0.2,-0.14 0.34,-0.16 0.1,-0.17 0.52,-0.46 0.69,-0.53 0.07,-0.21 0.25,-0.26 0.39,-0.39 0.14,-0.14 0.23,-0.27 0.37,-0.38 0.06,-0.1 0.08,-0.11 0.14,-0.19 -0.27,-0.33 -2.53,-1.1 -3.16,-1.24 -0.67,-0.14 -1.21,-0.23 -1.94,-0.23 -0.85,0 -1.18,0.12 -1.93,0.29z"/>
  <path class="fil0" d="M39.83 69.41c-0.21,0.03 -1.02,-0.13 -1.19,-0.24 0.06,-0.14 0.2,-0.48 0.31,-0.58l0.93 -2.31c0.57,-1.52 1.42,-4.74 1.69,-6.37l0.29 -1.26c0.2,1.7 -1.48,7.85 -1.54,9.35 -0.02,0.66 0.97,1.72 1.1,2.62 -0.17,-0.09 -0.03,0 -0.19,-0.17 -0.32,-0.35 -0.56,-0.71 -1.12,-0.91 -0.04,-0.01 -0.11,-0.03 -0.14,-0.05 -0.02,0 -0.06,-0.03 -0.07,-0.04l-0.07 -0.04zm-7.6 -5.75l-0.12 -0.24c-0.04,-0.09 -0.06,-0.15 -0.09,-0.24 -0.06,-0.15 -0.14,-0.34 -0.18,-0.51 -0.51,-1.12 -1.25,-4.07 -1.45,-5.34 -0.12,-0.7 -0.94,-5.67 -0.82,-5.89 0.17,0.49 1.15,5.53 1.34,6.31 0.24,1.02 0.5,2.04 0.85,2.98 0.24,0.65 0.9,2.18 1.27,2.58 0.55,-0.02 2.16,-0.53 2.98,-0.47 -0.05,0.17 -0.49,0.6 -0.62,0.75 -0.46,0.51 -0.91,0.86 -1.51,1.23 -0.16,0.09 -0.8,0.44 -0.95,0.46 -0.11,-0.12 -0.69,-1.49 -0.7,-1.62zm-14.32 -21.53c0.13,-0.12 0.36,-0.31 0.52,-0.34 0.18,0.25 9.78,20.55 10.85,22.66 0.38,0.77 1.34,2.63 1.37,3.4 -0.18,-0.23 -2.88,-5.77 -3.19,-6.41l-2.4 -4.81c-0.26,-0.52 -0.52,-1.09 -0.79,-1.62 -0.57,-1.1 -6.36,-12.74 -6.36,-12.88zm15.31 26.91c0.28,-0.27 1,-0.33 2.24,-1.64 0.12,-0.13 0.22,-0.18 0.34,-0.33 1.11,-1.4 1.44,-1.97 2.23,-3.69 2.56,-5.62 3.22,-16.35 3.48,-22.82l0.17 -4.79c0.01,-0.21 -0.05,-0.16 0.07,-0.22 0.1,0.3 0.11,4.52 0.09,5.15 -0.05,1.68 -0.19,3.32 -0.26,4.99 -0.24,5.36 -1.25,13.33 -2.75,18.39 -0.25,0.84 -1.2,3.71 -1.55,4.39 -0.1,0.19 -0.21,0.15 -0.47,0.19l-3.59 0.38zm-0.58 -34.6c0.11,0.05 0.15,0.07 0.26,0.14 0.04,0.03 0.06,0.04 0.11,0.08 0.07,0.06 0.03,0.02 0.08,0.09 0.19,0.04 0.43,0.24 0.62,0.34 0.18,0.15 0.41,0.26 0.58,0.37 0.11,0.08 0.16,0.13 0.27,0.2 0.15,0.09 0.18,0.08 0.27,0.23 0.12,0.03 0.2,0.08 0.32,0.22 0.31,-0.13 1.2,-0.93 1.5,-1.21 0.41,-0.37 0.98,-0.98 1.44,-1.23l-1.13 1.4c-0.43,0.52 -0.63,0.58 -1.04,0.99l-1.11 0.93c-0.13,0.11 -0.16,0.14 -0.28,0.24 -0.52,0.41 -0.44,0.57 -0.79,0.34l-0.14 -0.13c-0.19,-0.06 -0.29,-0.16 -0.41,-0.26 -0.28,-0.27 -0.64,-0.55 -0.92,-0.89 -0.35,-0.43 -0.66,-0.86 -0.97,-1.4l-1.29 -2.28c0.18,0.09 0.45,0.34 0.64,0.48l1.99 1.35zm-3.06 -6.65c-0.08,0.37 -0.12,0.82 -0.1,1.21 0.33,0.83 0.41,0.68 1.35,0.96 0.02,0.17 -0.54,1.18 -0.66,1.4 -0.1,0.21 -0.59,1.26 -0.69,1.34 -0.05,0.16 -0.98,2.08 -1.08,2.17 -0.11,0.34 -0.37,0.64 -0.4,1 -0.05,0.72 -0.16,1.46 -0.2,2.18 -0.02,0.39 -0.06,0.75 -0.07,1.14 -0.01,0.31 0.07,0.91 -0.07,1.13l0 2.19c0.08,0.14 0.12,2.07 0.13,2.41 0.03,0.82 0.14,1.64 0.15,2.45l0.28 3.02c0.11,0.15 0.28,1.96 0.32,2.3l0.06 0.63c0.1,0.14 0.1,0.48 0.13,0.69 0.03,0.23 0.07,0.47 0.11,0.71 0.03,0.31 0.14,0.66 0.1,0.95 0.01,0.01 0.01,0.02 0.02,0.03 0,0.01 0.01,0.03 0.01,0.04l0.49 2.87c0.04,0.36 0.25,1.04 0.19,1.37 0.08,0.12 0.1,0.27 0.12,0.42 0.02,0.13 0.05,0.28 0.07,0.41 0.05,0.27 0.11,0.54 0.15,0.8 0.07,0.38 0.29,1.29 0.29,1.6l-2.38 -4.64c-0.09,-0.07 -0.43,-0.77 -0.46,-0.93l-0.24 -0.45c-0.08,-0.06 -0.5,-0.91 -0.52,-1.02l-1.01 -1.96c-0.01,0 -1.52,-2.86 -1.55,-3.01 -0.25,-0.28 -0.39,-0.74 -0.56,-1.07 -0.14,-0.25 -0.47,-0.84 -0.53,-1.09 -0.1,-0.07 -0.58,-1.04 -0.6,-1.18 -0.14,-0.12 -0.19,-0.28 -0.24,-0.47 -0.14,-0.1 -0.54,-0.94 -0.56,-1.09 -0.06,-0.05 -0.03,-0.02 -0.08,-0.09 -0.03,-0.04 -0.03,-0.03 -0.05,-0.09 -0.04,-0.06 -0.05,-0.1 -0.08,-0.16l-0.5 -0.97c-0.22,-0.44 -0.43,-0.83 -0.66,-1.28 -0.07,-0.15 -0.13,-0.26 -0.21,-0.41 -0.04,-0.08 -0.07,-0.14 -0.11,-0.22 -0.07,-0.17 -0.05,-0.05 -0.06,-0.21 -0.14,-0.1 -0.22,-0.32 -0.26,-0.49 -0.09,-0.07 -0.64,-1.12 -0.65,-1.23l0.18 -0.13 0.73 -0.72c0.13,-0.15 0.38,-0.42 0.55,-0.47 0.07,-0.12 0.21,-0.26 0.34,-0.39 0.11,-0.13 0.23,-0.23 0.38,-0.3 0.09,-0.15 0.29,-0.29 0.42,-0.43l-0.07 -0.7 -0.19 0.05c-0.15,0.12 -2.22,1.06 -2.4,1.06l-1.24 0.57 -0.3 -0.55c0.06,-0.04 -0.03,-0.01 0.12,-0.05 0.53,-0.16 0.15,0.01 0.44,-0.28l0.3 -1.38c0.04,-0.24 0.19,-1.06 0.36,-1.29 0,-0.16 0.11,-0.31 0.22,-0.38 0.07,-0.24 0.79,-1.06 0.97,-1.29 0.64,-0.78 1.61,-1.77 2.37,-2.66l0.75 -0.87c0.03,-0.15 0.22,-0.33 0.38,-0.59 0.27,-0.42 0.51,-0.84 0.68,-1.32 0.04,-0.13 0.17,-0.65 0.2,-0.69 0.08,-0.25 0.43,-0.71 0.59,-0.94 0.19,-0.28 0.37,-0.55 0.57,-0.85 0.2,-0.28 0.99,-1.54 1.17,-1.66 0.1,-0.24 1.78,-2.48 1.99,-2.59 0.09,0.16 0.61,2.28 0.6,2.48 0.05,0.06 0.01,0 0.05,0.1 0.03,0.06 0.02,0.03 0.03,0.08l0.11 0.45c0.05,0.22 0.11,0.48 0.16,0.7 0.05,0.1 0.17,0.64 0.2,0.79 0.08,0.35 -0.01,0.54 -0.05,0.89zm25.7 -1.53l0.6 -1.89c0.09,-0.22 0.18,-0.61 0.29,-0.71 -0.01,-0.18 0.16,-0.62 0.25,-0.88l0.13 -0.28c0,-0.16 0.33,-1.17 0.41,-1.28 0.03,-0.17 0.05,-0.29 0.16,-0.41 0,-0.31 0.23,-0.68 0.29,-1.02 0.14,-0.3 0.22,-0.92 0.42,-1.11 0,-0.23 0.3,-1.03 0.38,-1.31 0.09,-0.24 0.11,-0.26 0.31,-0.36 0.02,-0.11 0.5,-0.56 0.63,-0.6 0.08,0.15 0.16,0.46 0.16,0.65 0.12,0.15 0.21,0.61 0.26,0.8 0.08,0.28 0.18,0.57 0.23,0.86 0.11,0.22 1.68,5.82 1.68,5.99 0.12,0.12 0.32,0.98 0.36,1.21 0.09,0.21 0.23,0.62 0.22,0.84 0.08,0.11 0.06,0.12 0.06,0.21l-7.06 0c0,-0.2 0.15,-0.61 0.22,-0.71zm12.52 -1.29c0.08,-0.45 0.31,-1.04 0.47,-1.52 0.07,-0.24 0.16,-0.47 0.24,-0.71 0.07,-0.24 0.12,-0.54 0.27,-0.7 -0.01,-0.31 0.31,-0.94 0.37,-1.32 0.09,-0.22 0.2,-0.76 0.34,-0.89 0.02,-0.31 0.74,-2.44 0.91,-2.87l0.32 -1.1c0.31,-0.03 0.32,-0.03 0.39,0.27 0.05,0.19 0.1,0.37 0.15,0.56 0.1,0.34 0.21,0.71 0.3,1.06l0.71 2.55c0.09,0.19 0.23,0.62 0.21,0.84 0.15,0.2 0.34,1.02 0.4,1.32 0.09,0.18 0.33,1.04 0.32,1.23l0.34 1.14 0.54 1.9 -6.87 0 0.59 -1.76zm-28.66 2.99c0.54,-0.31 1.13,-0.74 1.47,-1.14 0.12,-0.14 0.21,-0.19 0.32,-0.34 0.28,-0.36 0.52,-0.81 0.69,-1.26 0.29,-0.77 0.36,-1.38 0.55,-1.99 0.08,0.14 -0.31,1.88 -0.4,2.2 -0.23,0.81 -0.36,1.28 -0.76,1.94 -0.37,0.61 -0.8,1.01 -1.28,1.42 -0.36,0.31 -0.46,0.19 -1.07,0.16 -0.27,-0.02 -0.97,-0.05 -1.21,-0.11l1.69 -0.88zm-2.56 0.47c-0.06,0.11 -0.39,0.31 -0.55,0.32 -0.01,0.01 -0.02,0.02 -0.03,0.03l-0.98 0.52c-0.16,0.2 -0.94,-0.01 -1.19,-0.08 -0.42,-0.09 -0.83,-0.22 -1.25,-0.34 -0.4,-0.12 -0.85,-0.17 -1.24,-0.28 -0.02,-0.23 -0.02,-0.43 -0.06,-0.65 -0.03,-0.22 -0.08,-0.39 -0.1,-0.61l-0.14 -1c0.1,0.05 0.24,0.23 0.31,0.31l0.93 0.77 1.41 0.86c0.69,0.19 0.52,0.06 1.14,-0.14 0.23,-0.13 0.5,-0.23 0.73,-0.35 1.22,-0.62 1.3,-0.86 1.97,-1.27l0.54 -0.53c0.34,-0.26 0.97,-1.02 1.3,-1.4 1.21,-1.42 2.6,-4.27 3.16,-5.99 0.18,-0.55 0.35,-1.05 0.52,-1.61l0.42 -1.48c0.01,-0.02 0.03,-0.08 0.05,-0.1l0.04 -0.07c-0.07,0.6 -0.32,1.44 -0.47,2.07 -0.16,0.66 -0.36,1.31 -0.54,1.97 -0.67,2.57 -2.05,5.52 -3.89,7.39 -0.49,0.5 -1.52,1.44 -2.08,1.66zm-5.5 -10.97c-0.43,-0.11 -1,-0.4 -1.32,-0.63 -0.36,-0.25 -0.88,-0.55 -1.08,-0.89 -0.16,-0.08 -0.31,-0.27 -0.46,-0.42 -0.1,-0.09 -0.3,-0.36 -0.37,-0.51l0.24 -0.16c0.15,-0.21 0.27,-0.14 0.7,-0.55 0.17,0.08 0.03,-0.03 0.27,0.28 0.28,0.37 0.53,0.56 0.74,0.82 0.27,0.12 0.9,0.92 2.81,1.51 1.16,0.36 2.54,0.49 3.82,0.33 1.31,-0.16 2.28,-0.46 3.4,-0.91 1.24,-0.51 2.54,-1.46 2.69,-1.52 -0.08,0.07 -0.13,0.13 -0.23,0.23 -0.1,0.1 -0.16,0.13 -0.26,0.22 -2.03,1.74 -5.04,2.75 -7.72,2.76 -0.92,0 -2.51,-0.19 -3.23,-0.56zm5 -14.34c0.56,0.05 2.71,0.4 3,0.69 0.21,0 0.79,0.2 0.97,0.31 0,0.14 -0.08,0.63 -0.2,0.77l-1.09 -0.39c-0.45,-0.07 -1.66,-0.37 -2.04,-0.19 0.14,0.07 0.06,0.01 0.19,0.05l0.11 0.05c0.01,-0.02 0.03,0 0.04,0.01 0.17,-0.03 0.19,-0.02 0.36,0.01 0.78,0.09 1.85,0.36 2.44,0.68l-0.14 0.73c-0.31,0.02 -1.07,-0.1 -1.48,-0.13 -1.53,-0.1 -2.95,-0.15 -4.5,-0.06l-0.78 0.01 -1.64 0.28 -0.47 0.12c-0.02,-0.3 0.07,-1.09 0.18,-1.32 0.21,-0.15 1.1,-0.46 1.38,-0.46 0.1,-0.07 0,-0.03 0.17,-0.08 0.05,-0.02 0.11,-0.03 0.16,-0.04 0.48,-0.11 1.57,-0.37 2.04,-0.26 0.17,-0.11 1.31,-0.06 1.56,-0.08l0.4 0.03c-0.09,-0.05 -0.16,-0.03 -0.28,-0.05l-0.33 -0.11c-0.24,0.09 -2.34,-0.09 -4.01,0.33 -0.25,0.06 -0.92,0.3 -1.11,0.27 -0.07,-0.27 0.14,-0.26 0.39,-0.37 1.21,-0.52 3.61,-1.06 4.68,-0.8zm-5.47 0.29c0.01,0.37 0.17,0.67 0.17,1.09 0,1.03 0.05,1.22 -0.11,2.15 -0.05,0.35 -0.05,0.73 -0.04,1.1l0.05 0.56c0.21,0.24 0.2,0.99 0.72,1.18 0.27,0.1 0.13,-0.05 0.31,0.17 0.38,0.45 0.56,0.31 0.84,0.55l0.97 0.15c0.01,0.33 -0.07,0.54 -0.18,0.8 -0.18,0.58 -0.33,0.85 -0.74,1.12 -0.03,0.16 -0.8,0.59 -0.95,0.65 -0.33,0.14 -1.03,0.31 -1.42,0.23 -0.05,0.04 0.01,0.01 -0.1,0.05 -0.12,0.05 -0.36,0.06 -0.71,0.19 -0.23,0.08 -1.23,0.58 -1.35,0.7 -0.15,0.15 -0.13,0.32 -0.47,0.54 -0.01,0.18 -0.1,0.26 -0.19,0.41 -0.34,0.51 -2.27,4.08 -2.42,4.18 -0.01,0.17 -0.22,0.61 -0.36,0.72l-1.24 2.47c0,0.19 -0.51,1.19 -0.63,1.48 -0.09,0.23 -0.22,0.6 -0.32,0.77 -0.08,0.12 -0.36,0.5 -0.44,0.58 -0.1,0.2 -0.48,0.78 -0.65,0.9 -0.02,0.1 0.01,0.03 -0.04,0.13 -0.05,0.08 -0.03,0.05 -0.07,0.07l-1.42 2.19c-0.09,0.11 -0.01,0.05 -0.13,0.13 -0.03,0.13 0,0.04 -0.08,0.18 -0.32,0.49 -0.83,1.07 -1.14,1.66 -0.08,0.14 -0.25,0.55 -0.33,0.62 -0.17,0.57 -0.76,1.81 -1.08,2.33 -0.25,0.41 -0.3,0.4 -0.92,0.74 -0.25,0.13 -0.88,0.5 -1.13,0.54 -0.1,-0.32 -0.39,-0.77 -0.55,-1.1 -0.38,-0.76 -0.31,-0.33 -0.31,-1.4l-0.01 -0.33 -0.32 -0.1c-0.67,-0.08 -0.75,-0.13 -1.4,0.03 -0.08,0.07 -0.28,0.17 -0.38,0.24 -0.16,0.12 -0.18,0.24 -0.3,0.3 -0.13,0.51 -0.39,0.77 -0.38,1.51 0.16,0.03 0.22,0.01 0.34,0.11 0.24,-0.02 0.58,0.04 0.7,0.23l0.93 1.88c-0.11,0.18 -0.11,0.2 -0.25,0.33 -0.34,0.32 0.03,0.68 -0.02,1.32 -0.02,0.25 -0.29,0.53 -0.2,0.84 0.01,0.04 0.15,0.29 0.18,0.34 0.1,0.2 0.14,0.19 0.16,0.34l0.42 0.42c0.01,-0.01 0.02,0.02 0.03,0.03 0.13,0.02 0.2,0.08 0.31,0.16 0.35,0.1 0.56,0.23 0.97,0.19 0.04,-0.07 0.24,-0.2 0.37,-0.22l0.37 0.75c-0.11,0.26 -2.97,3.1 -3.11,3.32 0.07,0.19 0.13,0.13 0.2,0.29 0.31,0 0.58,-0.2 0.85,-0.31 0.13,-0.08 0.55,-0.29 0.71,-0.3 0.08,-0.09 0.01,-0.03 0.14,-0.1 0.02,-0.02 0.12,-0.07 0.16,-0.08 0.12,-0.06 0.19,-0.09 0.34,-0.12 0.11,-0.12 1.24,-0.65 1.45,-0.68l0.24 0.5 0.14 0.21c0.07,0.14 0.08,0.16 0.13,0.3 0.05,0.03 1.25,2.21 1.26,2.36 0.12,0.1 0.14,0.18 0.22,0.33l0.54 0.98c0.22,0.44 0.5,0.87 0.69,1.3 0.1,0.15 0.18,0.32 0.25,0.46 0.09,0.17 0.22,0.33 0.23,0.51 0.11,0.08 0.08,0.03 0.13,0.19 0.12,0.17 0.68,1.15 0.69,1.3 0.04,0.04 0.03,0.02 0.08,0.08 0.02,0.04 0.03,0.05 0.06,0.1 0.07,0.14 0.03,0.06 0.07,0.19 0.13,0.09 0.71,1.27 0.85,1.53 0.14,0.27 0.81,1.41 0.83,1.61 0.14,0.1 0.07,0.02 0.13,0.18 0.09,0.11 0.25,0.42 0.32,0.58 0.06,0.12 0.11,0.2 0.17,0.31 0.09,0.15 0.12,0.17 0.13,0.33 0.18,0.12 0.95,1.66 1.12,1.97 0.17,0.32 0.36,0.67 0.53,0.99 0.16,0.31 0.41,0.68 0.54,0.98 0.21,0.4 0.43,0.79 0.64,1.2 0.12,0.22 0.22,0.41 0.33,0.62 0.12,0.21 0.29,0.42 0.3,0.63 0.2,0.16 0.54,0.9 0.7,1.21 0.13,0.22 0.22,0.4 0.33,0.62 0.12,0.23 0.23,0.37 0.33,0.62 0.2,0.33 1.34,2.36 1.35,2.56l0.17 0.23c0.05,0.08 0.07,0.13 0.12,0.21 0.48,0.84 0.38,0.71 0.35,1.69 -0.01,0.5 -0.02,2.15 -0.26,2.46 0.02,0.19 0,0.33 -0.12,0.41 -0.14,0.34 -0.37,0.58 -0.15,1 0.14,0.03 0.04,-0.01 0.17,0.09 0.06,0.05 0.12,0.1 0.16,0.15 0.07,0.03 0.49,0.25 0.5,0.33l0.12 0.35c0.22,0.29 0.92,0.23 1.25,0.15l1.59 -0.54c0.32,-0.21 0.52,-0.32 0.93,-0.48 0.29,-0.11 0.86,-0.32 1.15,-0.3 0.16,-0.13 0.32,-0.09 0.58,-0.1 0.27,0 1.79,-0.08 1.97,0.06 0.18,-0.01 0.34,0.03 0.44,0.11 0.3,0.08 0.97,0.25 1.18,0.41l0.1 -0.01 1.66 0.04 0.06 0.02c0.12,-0.11 0.22,-0.19 0.38,-0.3l0.28 -0.24c0,-0.01 0.01,-0.02 0.02,-0.03l0.06 -0.05c0.01,0 0.02,-0.01 0.03,-0.02 0.06,-0.26 0.04,-0.22 0.05,-0.54 -0.08,-0.08 -0.14,-0.22 -0.21,-0.32 -0.4,-0.55 -0.23,-0.03 -0.09,-0.73 0.24,-1.18 -0.28,-3.01 -0.39,-4.14 -0.07,-0.27 -0.2,-0.72 -0.17,-0.99 -0.13,-0.16 -0.1,-0.33 -0.07,-0.52 0.03,-0.16 0.05,-0.34 0.08,-0.5 0.04,-0.29 0.02,-0.81 0.18,-1.02 -0.04,-0.32 0.07,-0.67 0.11,-0.99 0.03,-0.16 0,-0.17 0.08,-0.28 -0.05,-0.52 0.32,-2.17 0.39,-2.76 0.02,-0.33 0.17,-1.7 0.32,-1.9 -0.04,-0.28 0.04,-0.65 0.11,-0.92l0.16 -1.2c0.01,-0.04 0.03,-0.18 0.03,-0.21 0.02,-0.05 0.01,-0.03 0.03,-0.08 0,-0.01 0,-0.03 0.01,-0.04 0,-0.01 0.01,-0.03 0.02,-0.03 0,-0.01 0.01,-0.03 0.01,-0.04 -0.05,-0.28 0.06,-0.7 0.11,-0.99 0.05,-0.31 0.11,-1.21 0.23,-1.4l0.27 -2.15c0.02,-0.34 0.11,-1.64 0.25,-1.84l0.3 -3.31 0.11 -1.67c0.01,-0.15 0,-0.46 0.07,-0.56l-0.01 -0.12 0.01 -3.92 0.04 0.01c-0.09,-0.13 -0.1,-1.07 -0.1,-1.24 -0.02,-0.42 -0.07,-0.89 -0.11,-1.31l-0.21 -1.78c-0.09,-0.11 -0.09,-0.19 -0.12,-0.36 -0.04,-0.18 -0.07,-0.3 -0.09,-0.48 -0.1,-0.35 -0.19,-0.72 -0.3,-1.08 -0.07,-0.23 -0.34,-0.89 -0.35,-1.05 -0.01,-0.01 -0.02,-0.04 -0.02,-0.03l-0.36 -0.71c-0.12,-0.23 -0.34,-0.47 -0.37,-0.71l-0.06 -0.03c-0.09,-0.07 -0.02,-0.01 -0.08,-0.07 -0.03,-0.03 -0.06,-0.09 -0.1,-0.13 -0.14,-0.18 -0.1,-0.1 -0.15,-0.38 -0.05,-0.28 -0.14,-0.45 -0.16,-0.55 -0.1,-0.46 0.46,0.01 0.86,-0.71 0.13,-0.25 0.21,-0.96 0.3,-1.07 -0.02,-0.23 0.03,-0.46 0.08,-0.69 0.05,-0.29 0.21,-0.64 0.2,-0.94 -0.03,-0.94 -0.11,-1.01 -0.08,-2.18l0.13 -1.05c-0.09,-0.52 0.38,-1.69 0.43,-2.2 0.05,-0.14 0.09,-0.27 0.13,-0.4 0.02,-0.06 0.03,-0.12 0.05,-0.18 0.05,-0.15 0.02,-0.1 0.1,-0.2 -0.02,-0.44 -0.19,-0.88 -0.29,-1.29 0.13,-0.01 0.98,0.22 1.08,0.28 0.11,0.02 2.63,0.69 2.86,0.88 0.25,-0.03 0.75,0.17 1.04,0.25 0.4,0.1 0.82,0.24 1.23,0.34 0.26,0.07 1.1,0.22 1.26,0.36 0.22,-0.02 0.86,0.16 1.15,0.19 0.11,-0.12 0.46,-0.23 0.64,-0.32 0.22,-0.11 0.42,-0.21 0.63,-0.32 0.44,-0.22 0.84,-0.53 1.24,-0.7 0.05,-0.12 0.42,-0.32 0.57,-0.43 0.68,-0.5 1.09,-0.9 1.69,-1.4 0,0.13 -0.85,2.77 -0.93,2.92 -0.06,0.25 -0.36,1.31 -0.5,1.46 0,0.29 -0.25,0.83 -0.32,1.15 -0.1,0.27 -0.16,0.7 -0.34,0.88 0.01,0.22 -0.14,0.53 -0.2,0.75 -0.08,0.26 -0.2,0.83 -0.37,1.01 0,0.17 -0.08,0.43 -0.16,0.57l-0.11 0.05c-0.02,0 -0.03,0 -0.05,0.01l-0.66 -0.01 0.05 0.48 0.18 0.5c0.01,0.01 0.02,0.01 0.02,0.03 0.01,0.02 0.03,0.02 0.03,0.03 0.01,0.01 0.02,0.02 0.03,0.03l0.12 0.17c0.08,0.13 0.13,0.17 0.18,0.31 0.16,0.05 0.23,0.19 0.38,0.31 0.14,0.12 0.25,0.2 0.41,0.29 0.38,0.26 0.84,0.48 1.34,0.62 0.27,0.07 0.47,0.13 0.76,0.18 0.22,0.05 0.68,0.03 0.85,0.15l0.77 -0.01c0.53,0 1.19,-0.18 1.6,-0.17l0.91 -0.31c0.26,-0.32 1.65,-0.46 2.26,-2.33l0.03 -0.27c-0.24,-0.02 -0.48,0.03 -0.65,-0.04 -0.08,-0.18 -0.27,-0.74 -0.25,-0.95 -0.12,-0.13 -0.13,-0.26 -0.17,-0.43l-0.4 -1.4c-0.18,-0.62 -0.33,-1.24 -0.52,-1.85 -0.07,-0.29 -0.3,-0.92 -0.29,-1.15 0,-0.01 -0.02,-0.04 -0.02,-0.04l-0.04 -0.06c-0.01,-0.01 -0.01,-0.03 -0.02,-0.04 -0.02,-0.06 -0.02,-0.08 -0.04,-0.15l-0.26 -0.92c-0.12,-0.42 -0.26,-0.85 -0.36,-1.27 -0.08,-0.28 -0.29,-0.88 -0.29,-1.16 -0.12,-0.12 -0.45,-1.39 -0.5,-1.65l10.39 -0.01c-0.02,0.18 -0.05,0.33 -0.17,0.46 0.01,0.22 -0.34,1.11 -0.44,1.42l-0.78 2.29c0.01,0.26 -0.31,1.01 -0.4,1.31 -0.08,0.23 -0.15,0.42 -0.22,0.64 -0.07,0.2 -0.11,0.49 -0.24,0.63 0,0.18 -0.67,2.2 -0.74,2.29 -0.06,0.27 -0.49,1.69 -0.62,1.84l-0.7 0.01c-0.02,0.26 0.05,0.44 0.1,0.66 0.08,0.15 0.11,0.28 0.21,0.43 0.05,0.1 0.07,0.11 0.13,0.2 0.1,0.12 0.06,0.02 0.09,0.17 0.14,0.09 0.22,0.17 0.29,0.31 0.19,0.08 0.29,0.21 0.47,0.33 0.17,0.11 0.3,0.18 0.47,0.28 1.11,0.43 1.63,0.69 3.02,0.7 0.82,0 1.67,-0.11 2.44,-0.37 0.24,-0.08 0.48,-0.2 0.73,-0.27 0.08,-0.14 0.74,-0.32 1.26,-0.96 0.08,-0.09 0.14,-0.13 0.21,-0.21 0.11,-0.14 0.22,-0.42 0.32,-0.54 0.07,-0.25 0.16,-0.46 0.15,-0.74 -0.27,0 -0.65,0.06 -0.89,-0.02l-0.48 -1.75c-0.14,-0.48 -0.58,-1.8 -0.6,-2.19 -0.15,-0.16 -0.39,-1.25 -0.46,-1.54 -0.07,-0.24 -0.33,-1.02 -0.3,-1.21l-0.23 -0.66c-0.06,-0.25 -0.12,-0.43 -0.18,-0.68 -0.07,-0.22 -0.17,-0.46 -0.16,-0.66 -0.01,-0.01 -0.02,-0.03 -0.02,-0.03l-0.11 -0.23 -0.5 -1.91 0.22 0 0.52 0c0.11,-0.17 -0.05,-0.27 -0.01,-0.54 -0.12,-0.15 -0.06,-0.15 -0.3,-0.19l-0.37 -0.09c0,-0.02 -0.02,-0.01 -0.03,-0.02 -0.23,0.05 -0.6,-0.08 -0.86,-0.11l-1.33 -0.31c-0.23,0.03 -1.44,-0.24 -1.73,-0.33l-1.8 -0.37c-0.25,-0.05 -0.42,-0.03 -0.57,-0.17l0.23 -0.05c0.52,-0.05 0.23,-0.46 0.05,-0.63l-0.61 -0.53 -0.14 -0.1c-0.37,-0.12 -1.39,-1.17 -1.8,-1.46 -0.65,-0.45 -0.49,-0.26 -0.76,-0.26 -0.04,0.04 -0.02,0.03 -0.09,0.07l-0.21 0.07c-0.11,0.04 -0.19,0.06 -0.3,0.09 -0.2,0.06 -0.41,0.1 -0.62,0.15l-0.42 0.1c-0.06,0.06 0,0.01 -0.12,0.1l-0.27 0.16c-0.14,0.09 -0.19,0.13 -0.32,0.25 -0.15,0.15 -0.29,0.29 -0.44,0.45 -0.11,0.11 -0.15,0.15 -0.24,0.24 -0.08,0.09 -0.11,0.16 -0.19,0.19 -0.1,0.21 -0.26,0.41 -0.42,0.54 -0.24,0.4 -0.45,0.61 -0.79,0.85 -0.32,0.24 -0.62,0.46 -0.96,0.7 -0.24,0.16 -1.84,1.18 -2.03,1.22 -0.01,0.01 -0.02,0.02 -0.03,0.02l-0.08 0.08c-0.03,0.01 -0.09,0.05 -0.12,0.07 -0.1,0.06 -0.15,0.07 -0.25,0.13 -0.34,0.2 -1.19,0.71 -1.48,0.8 -0.07,0.11 -0.35,0.2 -0.51,0.29 -0.18,0.11 -0.32,0.24 -0.6,0.15 -0.15,-0.05 -1.04,-0.38 -1.12,-0.44 -0.27,-0.05 -1.39,-0.51 -1.8,-0.66l-0.54 -0.25c-0.19,0 -0.97,-0.32 -1.21,-0.4 -0.22,-0.08 -0.36,-0.2 -0.51,-0.31 -0.13,-0.1 -0.36,-0.25 -0.42,-0.4 -0.16,-0.02 -0.14,-0.03 -0.22,-0.17 -0.22,-0.06 -0.41,-0.27 -0.58,-0.4 -0.37,-0.27 -0.64,-0.53 -1.11,-0.69 -0.18,-0.06 -0.54,-0.14 -0.69,-0.24 -0.19,0.03 -1.01,-0.2 -1.21,-0.27 -0.11,-0.02 -0.21,-0.03 -0.32,-0.06 -0.1,-0.03 -0.02,0 -0.11,-0.04 -0.15,-0.06 -0.04,-0.01 -0.11,-0.06 -0.21,0.04 -1.17,-0.24 -1.46,-0.3 -0.52,-0.12 -0.97,-0.18 -1.31,-0.45 -0.4,-0.31 -1.64,-1.3 -1.31,-2.2l0.36 0.02c2.17,0.05 1.68,-0.86 2.14,-1.51l0.05 -0.05c0.01,-0.12 0.22,-1 0.27,-1.23 0.02,-0.41 0.12,-0.76 0,-1.14 -0.1,-0.03 -0.35,-0.46 -0.42,-0.57 -0.15,-0.22 0.02,-0.4 0.11,-0.68 0.19,-0.67 0.29,-0.81 0.27,-1.59 -0.06,-0.29 -0.23,-0.54 -0.26,-0.78 -0.14,-0.08 -0.15,-0.13 -0.23,-0.26l-0.58 -0.74c-0.09,-0.11 -0.15,-0.13 -0.25,-0.23 -0.09,-0.1 -0.1,-0.15 -0.18,-0.24 -0.14,-0.16 -0.29,-0.24 -0.42,-0.45 -0.36,-0.18 -0.63,-0.43 -1.09,-0.55 -0.49,-0.13 -0.95,-0.07 -1.39,0.08 -0.83,0.29 -0.41,0.31 -1.19,0.03 -1.36,-0.48 -1.9,0.32 -2.72,1.04 -1.24,1.1 -0.27,0.11 -1.14,1.28 -0.08,0.1 -0.61,0.89 -0.65,0.91z"/>
  <path class="fil0" d="M35.71 81.6l0.89 0c0.13,-0.27 0.22,-0.23 0.23,-0.66l0 -2.56c0,-2.31 0.23,-2.5 -1.05,-2.43 -0.37,0.42 -0.31,0.34 -0.31,1.24 0,0.52 0,1.04 0,1.56 0,0.53 0,1.05 0,1.57 0,0.24 -0.01,0.52 0.01,0.76 0.03,0.35 0.13,0.33 0.23,0.52z"/>
  <path class="fil0" d="M37.54 75.76c-0.31,0.68 -0.18,1.99 -0.18,2.81 -0.01,2.79 -0.23,2.91 1.07,2.79 0.37,-0.56 0.22,-1.66 0.22,-2.42 0,-0.83 0.05,-1.81 -0.01,-2.62 -0.02,-0.27 -0.08,-0.54 -0.31,-0.6 -0.18,-0.04 -0.66,0 -0.79,0.04z"/>
  <path class="fil0" d="M22.93 70.86c0.1,0.15 0.29,0.87 0.35,1.07 0.78,2.19 2.07,4.35 4.4,4.79l-0.17 0.08c-0.05,0.01 -0.1,0.02 -0.16,0.03 -0.8,0.13 -1.31,0.31 -2.06,0.63 -0.91,0.39 -1.05,0.53 -1.78,0.97 -0.14,0.09 -0.12,0.09 -0.24,0.11 -0.19,0.26 -0.51,0.32 -0.68,0.59 0.17,0.18 0.36,0.25 0.51,0.46 0.16,0.02 0.05,-0.01 0.2,0.08 0.06,0.04 0.13,0.09 0.2,0.13 0.12,0.08 0.26,0.13 0.33,0.23l1.04 0.44c0.06,0.02 0.12,0.03 0.18,0.06l0.17 0.09c0.22,-0.02 0.48,0.08 0.71,0.11 0.31,0.04 0.52,0.05 0.84,0.05 0.29,0.01 1.52,-0.15 1.56,-0.13 0.13,-0.12 0.16,-0.1 0.35,-0.14 0.13,-0.03 0.25,-0.06 0.37,-0.1 0.25,-0.08 0.48,-0.17 0.73,-0.24l1.92 -0.83c0.04,-0.03 -0.06,-0.11 0.08,-0.02 0.03,0.54 -0.1,1.29 0.13,1.75 0.35,0.28 0.96,0.19 1.08,0.06 0.22,-0.22 0.15,-0.78 0.16,-1.14 0.01,-0.89 0,-1.78 0,-2.67l-0.01 -1.18c-0.04,-0.27 -0.11,-0.41 -0.31,-0.49 -1.25,-0.04 -1.03,0.04 -1.04,2.16 0,0.17 -0.01,0.34 0,0.52 0.01,0.54 0.04,0.42 -0.09,0.48 -0.28,-0.34 -0.38,-0.22 -0.9,-0.19 -0.36,0.01 -0.68,0.03 -1.01,0.06 -0.23,0.02 -1.84,0.22 -2.04,0.07l3.55 -0.67c0.48,-0.08 0.36,-0.07 0.38,-0.15 -0.34,-0.31 -0.86,-0.63 -1.32,-0.82l-0.38 -0.15c-0.12,-0.06 -0.05,-0.02 -0.1,-0.06 -0.22,0.02 -0.53,-0.1 -0.79,-0.13 -1.06,-0.14 -0.62,0.29 -1.47,-0.9l-1.84 -2.55 0.4 0.38c0.58,0.59 1.3,1.49 1.85,2.05 0.08,0.08 0.27,0.36 0.38,0.41 0.17,0.08 0.46,0.03 0.64,0.09 0.08,-0.05 0.17,0.03 0,-0.34l-0.41 -0.99 0 -0.09 -0.33 -0.6c-0.12,-0.22 -0.22,-0.41 -0.3,-0.64 -0.07,-0.05 -0.49,-0.77 -0.6,-0.92 -0.24,-0.33 -0.44,-0.59 -0.69,-0.87 -0.46,-0.51 -1.07,-0.89 -1.85,-1.28 -0.39,-0.14 -0.8,-0.25 -1.15,-0.36l-0.95 -0.14c0.05,0.25 0.2,0.61 0.16,0.84z"/>
  <path class="fil12" d="M0.36 50.8l0.42 1.32c0.73,1.59 1.51,2.48 2.62,3.61 0.18,0.18 0.94,0.96 1.1,1.02 0.12,-0.13 0.12,-0.53 0.1,-0.69 -0.02,-0.25 -0.15,-0.4 -0.26,-0.6 -0.2,-0.39 -0.37,-0.71 -0.57,-1.09 -0.2,-0.37 -0.39,-0.69 -0.59,-1.07 -0.18,-0.34 -0.42,-0.74 -0.56,-1.07 0.08,0.13 0.26,0.35 0.37,0.5 0.5,0.71 1.74,2.64 2.05,3.03 0.15,0.2 0.12,0.06 0.26,0.21 0.06,0.06 0.31,0.51 0.33,0.59l0.15 0.12c0.11,-0.21 0.06,-0.66 0.21,-0.85 -0.01,-0.14 0.35,-2.16 0.41,-2.33 0.19,0.21 -0.11,2.35 -0.08,2.98 0,0.17 0.05,0.25 0.12,0.38 0.08,0.14 0.13,0.26 0.24,0.35 0.27,-0.22 1.03,-2.37 1.08,-2.59l0.23 -1.09c0.07,-0.22 0.02,-0.07 0.08,-0.14l-0.04 -0.13c0.01,-0.41 0.04,-0.77 0,-1.18 -0.03,-0.36 -0.12,-0.66 -0.16,-1 -0.07,-0.12 -0.71,-2.09 -1.19,-2.37l-0.31 0.4c-0.11,0.16 -0.19,0.28 -0.29,0.43 -0.5,0.77 -0.88,1.61 -1.12,2.52l-0.1 0.47c-0.08,0.19 -0.02,0.06 -0.07,0.12 -0.22,-0.36 -0.5,-1.05 -0.82,-1.4l-0.23 -0.36c-0.1,-0.02 0,0.03 -0.1,-0.08l-0.25 -0.32c-0.09,-0.11 -0.1,-0.1 -0.22,-0.21l-0.58 -0.6c-0.39,-0.36 -1.91,-1.68 -2.23,-1.65 -0.05,0.49 -0.09,0.89 -0.09,1.39 0,0.4 0.12,1.09 0.09,1.38z"/>
  <path class="fil13" d="M2.25 33.77c-0.02,0.25 -0.28,0.81 -0.38,1.11 -0.15,0.67 -0.22,1.16 -0.24,1.89 -0.01,0.68 0.1,1.31 0.16,1.94l0.33 1.8c0.08,0.12 0.03,0.06 0.09,0.22 0.04,0.13 -0.01,0.05 0.06,0.17 0.26,-0.16 0.45,-0.52 0.48,-0.86 0.08,-0.73 0.21,-3.22 0.34,-3.52l0.06 4.15 0.21 -0.11c-0.04,0.27 -0.14,0.55 -0.18,0.86 -0.04,0.38 -0.02,0.66 -0.01,1.04 0.03,0.27 0.15,0.9 0.29,1.07 0.15,-0.11 0.63,-1.16 0.74,-1.42l0.71 -1.43c-0.05,0.31 -0.76,2.18 -0.92,2.6 -0.11,0.31 0,0.63 0.13,0.92 0.2,-0.02 0.13,-0.06 0.44,-0.41l1.12 -1.47c0.06,-0.2 0.32,-0.73 0.45,-0.85l0.19 -0.68c0.22,-1.03 0.25,-1.98 -0.03,-3 -0.04,-0.22 -0.12,-0.39 -0.11,-0.61 -0.12,-0.07 -0.04,-0.02 -0.16,-0.06 -0.04,0.06 -0.3,0.25 -0.43,0.36 -0.38,0.34 -0.48,0.41 -0.87,0.83 -0.12,0.13 -0.26,0.34 -0.37,0.39l0.14 -0.57c0.06,-0.62 0.13,-1.09 0.1,-1.74 -0.02,-0.6 -0.12,-1.08 -0.19,-1.66 -0.06,-0.21 -0.23,-0.85 -0.21,-1.04 -0.12,-0.12 -0.19,-0.45 -0.25,-0.62 -0.07,-0.23 -0.16,-0.44 -0.22,-0.65l-0.14 -0.39c-0.16,-0.06 -0.64,0.69 -0.71,0.79 -0.15,0.2 -0.48,0.85 -0.62,0.95z"/>
  <path class="fil14" d="M10.32 69.81c-0.35,0.01 -0.7,0.14 -1.04,0.11l-0.25 0.09c0.14,0.4 0.47,0.74 0.65,1.05 0.12,0.18 0.34,0.37 0.38,0.55 0.18,0.1 0.51,0.47 0.6,0.63 0.2,0.04 0.17,0.12 0.33,0.26 0.11,0.08 0.25,0.18 0.35,0.26 0.38,0.25 0.65,0.43 1.11,0.65 0.44,0.2 0.95,0.34 1.28,0.48 0.39,0.08 1.05,0.3 1.41,0.29l1.45 0.16c0.19,0 0.39,-0.03 0.55,0.06 0.3,-0.1 1.1,0 1.48,0 -0.02,-0.21 -0.19,-0.44 -0.29,-0.62 -0.16,-0.3 -0.15,-0.25 -0.51,-0.38 -0.44,-0.17 -0.89,-0.33 -1.32,-0.49 -0.84,-0.31 -1.89,-0.62 -2.61,-0.97 0.74,0.1 3.51,0.98 4.81,1.16 -0.08,-0.34 -0.4,-0.66 -0.55,-0.94 -0.32,-0.27 -0.52,-0.56 -0.87,-0.83l-0.88 -0.59c0,-0.01 -0.02,-0.02 -0.03,-0.02l-0.06 -0.05c0,-0.01 -0.02,-0.01 -0.03,-0.02 -0.13,-0.02 -0.55,-0.23 -0.72,-0.3 -0.25,-0.1 -0.51,-0.2 -0.78,-0.25l-0.26 -0.1c0,-0.02 -0.02,-0.02 -0.03,-0.03l-1.41 -0.2 -1.62 -0.08c-0.17,0.1 -0.87,0.08 -1.14,0.12z"/>
  <path class="fil15" d="M4.18 63.49c0.28,0.48 0.47,1.03 0.78,1.45 0.17,0.23 0.27,0.41 0.45,0.63 0.19,0.22 0.4,0.37 0.48,0.59 0.1,0.05 0.09,0.04 0.19,0.12 0.1,0.1 0.07,0.06 0.14,0.17 0.12,0.04 0.16,0.11 0.29,0.21 0.11,0.08 0.18,0.14 0.29,0.22 0.16,0.12 0.46,0.24 0.61,0.4 0.15,0.06 0.02,-0.02 0.16,0.07 0.16,0.1 0.04,0.03 0.11,0.1 0.09,0.01 1.05,0.41 1.23,0.49l1.37 0.41 2.22 0.39 0.19 -0.01 -0.04 -0.16c-0.15,-0.1 -0.16,-0.42 -0.27,-0.59 -0.08,-0.12 -0.37,-0.26 -0.51,-0.34 -0.35,-0.19 -0.74,-0.41 -1.11,-0.6 -0.4,-0.21 -0.74,-0.41 -1.13,-0.61 -0.31,-0.16 -0.83,-0.5 -1.08,-0.59l3.28 1.33c0.33,0.14 0.75,0.34 1.06,0.44l0.02 -0.18 -0.15 -0.25c-0.26,-0.54 -0.61,-1.07 -1,-1.51 -0.51,-0.55 -1.45,-1.03 -1.64,-1.22 -0.16,-0.03 -0.44,-0.2 -0.61,-0.27 -0.23,-0.1 -0.42,-0.17 -0.65,-0.25 -0.22,-0.07 -0.45,-0.14 -0.69,-0.21 -0.21,-0.06 -0.47,-0.1 -0.66,-0.16l-1.49 -0.25c-0.13,0.05 -0.26,0.03 -0.43,0.02l-1.4 -0.01 -0.01 0.17z"/>
  <path class="fil16" d="M16.99 68.54c0.24,1.25 1.36,3.22 2.43,4.2 0.15,0.14 0.46,0.36 0.65,0.49 0.21,0.12 0.54,0.27 0.73,0.38l0.45 0.15c0.01,0 0.03,0.01 0.04,0.01 0.01,0.01 0.02,0.01 0.03,0.02l0.08 0.04 0.76 0.11c-0.08,-0.31 -2.11,-3.16 -2.39,-3.8 0.17,0.13 0.73,0.88 0.94,1.12 0.09,0.11 0.1,0.14 0.19,0.25 0.15,0.18 0.25,0.27 0.39,0.46l0.95 1.18c0.18,0.25 0.52,0.27 0.99,0.32l-0.44 -1.28 -0.14 -0.31c-0.29,-0.73 -0.73,-1.54 -0.88,-1.92 -0.1,-0.17 -0.18,-0.34 -0.29,-0.51 -0.1,-0.16 -0.24,-0.32 -0.3,-0.48 -0.05,-0.05 -0.02,-0.01 -0.08,-0.08 -0.01,-0.01 -0.06,-0.07 -0.07,-0.08 -0.08,-0.12 -0.04,-0.03 -0.08,-0.18 -0.1,-0.05 -0.66,-0.72 -1.02,-0.99 -0.2,-0.15 -0.37,-0.27 -0.58,-0.42 -0.13,-0.08 -0.57,-0.26 -0.63,-0.35 -0.71,-0.22 -1.38,-0.55 -2.26,-0.6 0.09,0.7 0.32,1.64 0.53,2.27z"/>
  <path class="fil17" d="M12.11 61.66c0.05,0.38 -0.03,0.76 -0.04,1.12 -0.02,0.4 0,0.75 0.01,1.14l-0.02 0.03c0.13,0.17 0.09,0.71 0.13,0.97 0.18,1.37 0.5,1.63 0.76,2.44 0.09,0.08 0.3,0.46 0.4,0.6 0.16,0.22 0.3,0.4 0.48,0.57 0.29,0.26 0.73,0.69 1.15,0.87 0.1,-0.15 -0.31,-1.69 -0.39,-2.02l-0.32 -1.52c-0.05,-0.21 -0.12,-0.39 -0.01,-0.53l1.13 3.3c0.1,0.33 0.46,0.61 0.79,0.68 0.02,-1.03 0.02,-2.14 -0.07,-3.16 -0.14,-1.54 -0.35,-1.59 -0.56,-2.61 -0.1,-0.16 -0.16,-0.37 -0.25,-0.56 -0.25,-0.48 -0.65,-1.09 -1.01,-1.45 -0.3,-0.29 -0.51,-0.51 -0.86,-0.8 -0.26,-0.23 -0.89,-0.62 -0.92,-0.69 -0.17,0.07 -0.08,-0.07 -0.16,0.18l-0.21 1.39c0,0.01 -0.01,0.04 -0.01,0.03 -0.01,-0.01 -0.01,0.02 -0.02,0.02z"/>
  <path class="fil18" d="M1.37 56.06l0.17 1.19c0.11,0.14 0.3,0.85 0.37,1.08 0.3,0.68 0.78,1.58 1.31,2.09 0.3,0.28 0.54,0.55 0.87,0.83l0.86 0.66c0,0 0.02,0.01 0.02,0.02l0.04 0.04 0.42 0.27c0.11,0.08 0.02,0.01 0.08,0.07 0.21,0.09 0.57,0.33 0.77,0.45 0.24,0.15 0.79,0.49 1.02,0.55l-0.11 -0.9c-0.15,-0.02 -0.24,-0.23 -0.34,-0.36l-2.38 -2.66c0.4,0.28 0.94,0.85 1.27,1.12l1.25 1.12c0.17,0.16 0.29,0.24 0.43,0.37 0.17,0.17 0.16,0.3 0.44,0.32 -0.24,-1.49 -0.58,-2.61 -1.68,-3.67 -1.27,-1.23 -1.53,-1.4 -3.13,-2.23 -0.16,-0.09 -0.93,-0.38 -1.01,-0.46l-0.68 -0.21 0.01 0.31z"/>
  <path class="fil19" d="M8.78 62.3c0.17,0.14 0.29,0.3 0.51,0.48 0.16,0.12 0.42,0.32 0.65,0.38 -0.14,-0.68 -0.29,-1.33 -0.43,-2.02 -0.07,-0.33 -0.13,-0.65 -0.21,-0.97 -0.06,-0.23 -0.15,-0.81 -0.22,-0.96 0.1,0.08 0.63,1.77 0.74,2.1 0.25,0.78 0.38,1.65 1.07,1.79 0.12,-0.52 -0.06,-2.34 0.02,-2.62l-0.07 -0.25c-0.11,-0.82 -0.09,-0.7 -0.29,-1.58 -0.34,-0.8 -0.45,-1.32 -1.12,-2.07 -0.28,-0.32 -1.34,-1.35 -1.75,-1.42 -0.33,1.04 -0.37,2.9 -0.21,4.03 0.13,0.98 0.48,2.04 1.07,2.83 0.08,0.11 0.16,0.18 0.24,0.28z"/>
  <path class="fil20" d="M0 42.12l0 1.31c0.12,0.03 0.09,0.19 0.11,0.35 0.27,2.09 2.09,4.37 2.24,4.8l-0.03 -0.02c0.27,-0.06 0.01,0.03 0.21,-0.16 0.02,-0.5 0.22,-0.1 -0.02,-1.01l-0.67 -2.6c-0.04,-0.16 -0.05,-0.14 0,-0.25l1.22 3.3c0.07,0.2 -0.02,0.11 0.11,0.19 0.17,-0.19 0.38,-1.04 0.42,-1.36 0.06,-0.56 0.01,-1.22 -0.08,-1.75 -0.23,-1.28 -0.99,-2.4 -1.02,-2.67l-0.9 -1.24c-0.22,-0.28 -0.74,-0.92 -0.97,-1.1 -0.33,0.39 -0.53,2.1 -0.62,2.21z"/>
  <path class="fil21" d="M6.33 43.12c-0.09,0.15 -0.33,0.29 -0.47,0.41l-0.89 0.92c-0.15,0.18 -0.22,0.29 -0.36,0.47 -0.07,0.16 -0.18,0.27 -0.26,0.42 -0.09,0.16 -0.12,0.32 -0.25,0.42 -0.03,0.31 -0.27,0.78 -0.34,1.16 -0.1,0.51 -0.02,0.98 -0.08,1.41 0.12,0.17 0.12,0.8 0.3,1.05 0.11,-0.07 1.44,-2.88 1.45,-2.93 -0.04,0.28 -0.48,1.48 -0.59,1.83 -0.29,0.88 -0.52,1.04 -0.24,1.67 0.08,0.2 0,0.14 0.19,0.09 0.03,-0.13 0.49,-0.6 0.62,-0.75l0.98 -1.43c0.05,-0.15 0.08,-0.2 0.14,-0.34 0.02,-0.05 0.05,-0.12 0.07,-0.16 0.07,-0.12 0.03,-0.06 0.1,-0.12 0,-0.16 0.24,-0.9 0.29,-1.23 0.05,-0.53 0.05,-0.82 0.01,-1.36l-0.18 -1.07 -0.18 -0.59c-0.18,0.05 -0.13,0.08 -0.31,0.13z"/>
  <path class="fil22" d="M22.57 74.64c0.15,0.08 0.54,0.25 0.69,0.26 0.12,0.15 0.36,0.27 0.54,0.38 0.29,0.18 0.82,0.65 0.98,0.92l-4.53 0.19c0.27,0.08 2.16,0.19 2.58,0.23 0.44,0.04 0.86,0.09 1.29,0.12 0.33,0.03 0.32,0.07 0.48,0.24 0.09,0.1 0.25,0.27 0.3,0.4 -0.26,0.13 -0.73,0.21 -0.98,0.34 -0.15,0.03 -1.1,0.24 -1.23,0.34l-1.4 0.19c-0.64,0.08 -1.34,0.05 -1.97,-0.07 -0.28,-0.06 -0.55,-0.13 -0.82,-0.22 -0.28,-0.1 -0.48,-0.23 -0.74,-0.3 -0.04,-0.06 -0.2,-0.13 -0.29,-0.19 -0.12,-0.07 -0.2,-0.14 -0.34,-0.16 -0.09,-0.17 -0.51,-0.46 -0.68,-0.53 -0.07,-0.21 -0.26,-0.26 -0.4,-0.39 -0.14,-0.13 -0.23,-0.27 -0.37,-0.38 -0.06,-0.1 -0.08,-0.11 -0.13,-0.19 0.26,-0.33 2.52,-1.1 3.15,-1.24 0.67,-0.14 1.22,-0.23 1.95,-0.23 0.84,0 1.18,0.12 1.92,0.29z"/>
  <path class="fil0" d="M33.88 75.76c-0.31,0.68 -0.18,1.99 -0.18,2.81 -0.01,2.79 -0.23,2.91 1.07,2.79 0.37,-0.56 0.22,-1.66 0.22,-2.42 0,-0.83 0.05,-1.81 -0.01,-2.62 -0.03,-0.27 -0.08,-0.54 -0.31,-0.6 -0.19,-0.04 -0.66,0 -0.79,0.04z"/>
 </g>
</svg>
